<svg xmlns="http://www.w3.org/2000/svg" data-name="Layer 1" version="1.1" viewBox="0 0 893.3 170.1" stroke="none" file="none" class="svg svg-MOT-2024LOGO_rgb header-svg">
  <path d="M66.1,82.8L.9,45.2v20.5l32.1,18.5L.9,102.7v20.5l65.2-37.7c0-.5-.1-.9-.1-1.4s0-.9.1-1.4"></path>
  <path d="M154.1,102.7l-32.1-18.5,32.1-18.5v-20.5l-65.2,37.7c0,.4.1.9.1,1.4s0,.9-.1,1.4l65.2,37.7v-20.5Z"></path>
  <path d="M131.8,27.1l-32.1,18.5V10.4L82,.1v73.5c.8.4,1.6.9,2.4,1.4l65.2-37.7-17.7-10.2Z"></path>
  <path d="M82,94.7v75.3s17.7-10.2,17.7-10.2v-37.1s32.1,18.5,32.1,18.5l17.7-10.2-65.2-37.7c-.7.5-1.5,1-2.4,1.4"></path>
  <path d="M73,73.6V.1s-17.7,10.2-17.7,10.2v35.3S23.2,27.1,23.2,27.1l-17.7,10.2,65.2,37.7c.7-.5,1.5-1,2.4-1.4"></path>
  <path d="M70.6,93.3L5.4,131l17.7,10.2,32.1-18.5v37.1s17.7,10.2,17.7,10.2v-75.3c-.8-.4-1.6-.9-2.4-1.4"></path>
  <path d="M201,99h10.8v-3.4h-25.2v3.4h10.8v28.8h3.7v-28.8ZM217.6,127.7h23.5v-3.3h-19.8v-11.2h17.5v-3.3h-17.5v-11h19.6v-3.3h-23.2v32.1ZM287.4,127.7h3.6v-32.1h-3.7l-11.7,17.5-11.7-17.5h-3.7v32.1h3.5v-26l11.7,17.2h.2l11.7-17.2v26ZM320,116h-14.6l7.3-16.4,7.3,16.4ZM325.2,127.7h3.9l-14.6-32.4h-3.4l-14.6,32.4h3.7l3.8-8.5h17.5l3.8,8.5ZM358.8,127.7h2.9v-32.1h-3.5v25.7l-20.2-25.7h-3.4v32.1h3.5v-26.3l20.7,26.3ZM390.7,116h-14.6l7.3-16.4,7.3,16.4ZM399.8,127.7l-14.6-32.4h-3.4l-14.6,32.4h3.7l3.8-8.5h17.5l3.8,8.5h3.9ZM413.3,99h10.8v-3.4h-25.2v3.4h10.8v28.8h3.7v-28.8ZM434.9,91.9h16.6v-2.9h-14.1c-.5,1.1-1.4,2-2.5,2.4v.5ZM456.2,114v-18.4h-3.6v18.7c0,7-3.8,10.6-9.7,10.6s-9.8-3.9-9.8-10.8v-18.4h-3.6v18.7c0,9.1,5.4,14,13.4,14s13.4-4.9,13.4-14.2M509.4,128l11.5-32.4h-3.8l-9.2,26.8-8.8-26.8h-3l-8.8,26.8-9.2-26.8h-3.9l11.5,32.4h3l8.9-26.1,8.8,26.1h3.1ZM543.3,116h-14.6l7.3-16.4,7.3,16.4ZM548.5,127.7h3.9l-14.6-32.4h-3.4l-14.6,32.4h3.7l3.8-8.5h17.5l3.8,8.5ZM584.2,127.7l-14.4-18.1,13.8-14h-4.7l-18.4,19.2v-19.2h-3.6v32.1h3.6v-8.6l6.8-6.9,12.3,15.6h4.5ZM609.5,116h-14.6l7.3-16.4,7.3,16.4ZM618.6,127.7l-14.6-32.4h-3.4l-14.6,32.4h3.7l3.8-8.5h17.5l3.8,8.5h3.9Z"></path>
  <path d="M872.6,78.9h9.9v-27.1h10.7v-8.7h-31.3v8.7h10.7v27.1ZM836,60.3v-8.6h6.5c3.3,0,5.4,1.4,5.4,4.3h0c0,2.7-2,4.3-5.3,4.3h-6.6ZM826.1,78.9h9.9v-10.8h4.4l7.2,10.8h11.4l-8.5-12.5c4.4-1.9,7.4-5.5,7.4-11h0c0-3.6-1.1-6.3-3.2-8.4-2.4-2.4-6.2-3.8-11.6-3.8h-16.9v35.8ZM801.5,70.7c-5.5,0-9.2-4.5-9.2-9.7h0c0-5.3,3.6-9.7,9.1-9.7s9.1,4.4,9.1,9.7h0c0,5.3-3.6,9.7-9,9.7M801.4,79.6c11,0,19.3-8.3,19.3-18.6h0c0-10.4-8.2-18.6-19.2-18.6s-19.3,8.3-19.3,18.6h0c0,10.4,8.2,18.6,19.2,18.6M758.4,60.9v-9.5h4.7c3.5,0,5.7,1.6,5.7,4.6h0c0,2.9-2.2,4.8-5.7,4.8h-4.7ZM748.5,78.9h9.9v-10.2h5c8.8,0,15.3-4.4,15.3-12.9h0c0-8-5.8-12.6-14.8-12.6h-15.4v35.8ZM728.2,79.5c8.7,0,14.5-4.3,14.5-11.6h0c0-6.8-5.1-9.5-13.3-11.2-5-1.1-6.2-1.8-6.2-3.5h0c0-1.4,1.2-2.4,3.6-2.4s6.7,1.2,10,3.5l5-7c-3.9-3.1-8.6-4.8-14.7-4.8s-13.8,4.8-13.8,11.4h0c0,7.4,5.9,9.6,13.5,11.3,4.9,1.2,6.1,1.9,6.1,3.5h0c0,1.6-1.4,2.6-4.1,2.6-4.1,0-8-1.5-11.6-4.3l-5.5,6.6c4.4,3.9,10.4,5.9,16.8,5.9M673,78.9h9.8v-19.6l15.3,19.6h8.6v-35.8h-9.8v18.9l-14.7-18.9h-9.2v35.8ZM644.4,64.7l4-10.1,4,10.1h-8ZM628.6,78.9h10.4l2.6-6.4h13.8l2.6,6.4h10.6l-15.2-36h-9.6l-15.2,36ZM602.5,60.3v-8.6h6.5c3.3,0,5.4,1.4,5.4,4.3h0c0,2.7-2,4.3-5.3,4.3h-6.6ZM592.6,78.9h9.9v-10.8h4.4l7.2,10.8h11.4l-8.5-12.5c4.4-1.9,7.4-5.5,7.4-11h0c0-3.6-1.1-6.3-3.2-8.4-2.4-2.4-6.2-3.8-11.6-3.8h-16.9v35.8ZM566.6,78.9h9.9v-27.1h10.7v-8.7h-31.3v8.7h10.7v27.1ZM508.5,78.9h9.9v-12.8h16.9v-8.2h-16.9v-6.1h18.7v-8.7h-28.6v35.8ZM483.7,70.7c-5.5,0-9.2-4.5-9.2-9.7h0c0-5.3,3.6-9.7,9.1-9.7s9.1,4.4,9.1,9.7h0c0,5.3-3.6,9.7-9,9.7M483.6,79.6c11,0,19.3-8.3,19.3-18.6h0c0-10.4-8.2-18.6-19.2-18.6s-19.3,8.3-19.3,18.6h0c0,10.4,8.2,18.6,19.2,18.6M422.8,78.9h9.9v-13.5l13.6-22.2h-11.1l-7.4,13-7.4-13h-11.3l13.6,22.4v13.4ZM385.9,60.3v-8.6h6.5c3.3,0,5.4,1.4,5.4,4.3h0c0,2.7-2,4.3-5.3,4.3h-6.6ZM376,78.9h9.9v-10.8h4.4l7.2,10.8h11.4l-8.5-12.5c4.4-1.9,7.4-5.5,7.4-11h0c0-3.6-1.1-6.3-3.2-8.4-2.4-2.4-6.2-3.8-11.6-3.8h-16.9v35.8ZM350,78.9h9.9v-27.1h10.7v-8.7h-31.3v8.7h10.7v27.1ZM322.5,79.5c8.7,0,14.5-4.3,14.5-11.6h0c0-6.8-5.1-9.5-13.3-11.2-5-1.1-6.2-1.8-6.2-3.5h0c0-1.4,1.2-2.4,3.6-2.4s6.7,1.2,10,3.5l5-7c-3.9-3.1-8.6-4.8-14.7-4.8s-13.8,4.8-13.8,11.4h0c0,7.4,5.9,9.6,13.5,11.3,4.9,1.2,6.1,1.9,6.1,3.5h0c0,1.6-1.4,2.6-4.1,2.6-4.1,0-8-1.5-11.6-4.3l-5.5,6.6c4.4,3.9,10.4,5.9,16.8,5.9M291,78.9h9.9v-35.8h-9.9v35.8ZM249.6,78.9h9.8v-19.6l15.3,19.6h8.6v-35.8h-9.8v18.9l-14.7-18.9h-9.2v35.8ZM232.1,78.9h9.9v-35.8h-9.9v35.8ZM186.5,78.9h9.7v-20.5l9.1,13.9h.2l9.1-14v20.5h9.9v-35.8h-10.5l-8.5,13.8-8.5-13.8h-10.5v35.8Z"></path>
</svg>