<svg role="img" aria-labelledby="header-bar__logo-title" xmlns="http://www.w3.org/2000/svg" viewBox="0 0 607 168" width="165" height="46" class="header-bar__logo"><title id="header-bar__logo-title">Ministry for the Environment</title> <path d="M4 84.5c0-44.17 36-80 80.32-80s80.32 35.8 80.32 80-36 80-80.32 80S4 128.67 4 84.5m79.77-7C79.23 65.56 68 52 48 52.84c-19.16.79-26.63 12.54-30.44 24.63Zm56.86 0C137.05 68.06 127 61 116 61s-18.19 7-21.2 16.51Zm5 26.23a33.26 33.26 0 0 1-25.61 12c-17.69 0-34.38-13.31-35.24-30.08H17.17a66.94 66.94 0 1 0 9.28-35.06 41.34 41.34 0 0 1 21.83-6.28 46.54 46.54 0 0 1 40.89 23.45 31 31 0 0 1 27.1-15.07c18.12 0 33.18 15.56 34.19 32.92h-57c.72 12.16 13.66 21.8 26.54 21.8a25.63 25.63 0 0 0 12.64-3.28 7.65 7.65 0 0 1-1.86-5 8.18 8.18 0 0 1 16.35 0 7.57 7.57 0 0 1-1.52 4.56M224.88 137.52h.75l8.83-13.65c-1 3.76-1.95 7.54-3 11.65-.24.94-.9 1-2.06 1l-.22.83.12.14c.34 0 2-.12 3.4-.12 1.16 0 3.2.12 3.54.12l.34-.75-.12-.22c-1.24 0-1.89-.27-1.89-.9a4.69 4.69 0 0 1 .21-1.33l2.67-11c.42-1.72.56-2 2.36-2l.38-.77-.14-.18c-.15 0-1.24.13-1.94.13h-2.94l-8 12.35-1.07-12.14c0-.16-.05-.34-.53-.34-1.53 0-3 .13-4.56.13l-.31.8h1.4c.95 0 1.24 1 1.38 1.6-3.2 8.22-4.27 10.57-5.09 12.44a2 2 0 0 1-2.15 1.16l-.23.83.13.12c.6 0 1.52-.12 2.71-.12 1 0 1.94.12 2.5.12l.34-.9-.17-.07c-1.11 0-1.67-.17-1.67-.8a17.81 17.81 0 0 1 1.13-3.27l2.77-7.12h.05ZM248.67 128.52l.79.53c0 .75-3.31 6.6-4.82 6.6-.78 0-.94-.41-.94-1.23 0-2.14 2.52-5.9 5-5.9m3.39 5.29c-.36.39-1.21 1.7-1.77 1.7-.26 0-.43-.27-.43-.73 0-1.07 2.49-6.82 3.15-8.59l-.8-.19-.8.12-.75.95-1-.13c-3.47 0-8.44 5.17-8.44 8.74 0 1.28.39 2.15 1.67 2.15 2.13 0 4.71-3.61 5.63-5.26h.05a19.58 19.58 0 0 0-1.14 4 1.15 1.15 0 0 0 1.28 1.26c1.48 0 3.18-2.46 3.93-3.53ZM257 130c.22-.31.75-1.19 1.22-1.19s.67.42.67.86c0 1.38-2.66 7-2.66 7.47s1 .55 1.4.55l.95-.26c.26-.93.73-1.85 1.07-2.74.58-1.48 2.42-6.65 4.7-6.65.48 0 .8.22.8.63 0 .8-2.47 6.35-2.47 7.69 0 .92.33 1.45 1.28 1.45 1.84 0 3.4-2.06 4.52-3.29L268 134c-.46.41-1.29 1.62-2 1.62l-.49-.48c0-1.29 2.33-5.7 2.33-7.13a1.62 1.62 0 0 0-1.8-1.7c-2.32 0-4 1.94-5.26 3.68a10.34 10.34 0 0 0 .41-2.15c0-.8-.24-1.53-1.18-1.53-1.7 0-2.69 2-3.5 3.25ZM279.38 128.52l.8.53c0 .75-3.32 6.6-4.83 6.6-.78 0-.94-.41-.94-1.23 0-2.14 2.52-5.9 5-5.9m3.39 5.29c-.36.39-1.21 1.7-1.77 1.7-.26 0-.43-.27-.43-.73 0-1.07 2.5-6.82 3.15-8.59l-.8-.19-.8.12-.75.95-1-.13c-3.47 0-8.44 5.17-8.44 8.74 0 1.28.39 2.15 1.67 2.15 2.13 0 4.71-3.61 5.63-5.26h.05a19.58 19.58 0 0 0-1.14 4 1.15 1.15 0 0 0 1.28 1.26c1.48 0 3.18-2.46 3.93-3.53ZM292 128.16h2.45l.29-.9-.22-.19h-2.21a16.39 16.39 0 0 0 .73-2.7c0-.55-.68-.63-1.09-.63-.92 0-1.12.18-1.38 1.1l-.66 2.23h-1.94l-.26 1 .21.12h1.72l-.39 1.28a63.24 63.24 0 0 0-1.84 6.72 1.63 1.63 0 0 0 1.75 1.68c2.08 0 3.37-1.61 4.49-3.09l-.58-.43c-.64.61-1.29 1.58-2.29 1.58-.48 0-.65-.3-.65-.71l.24-1.21ZM309.29 134.05c-.54.44-1.29 1.6-2 1.6l-.39-.53c0-.87 2.86-7.35 2.86-8s-.8-.68-1.21-.68c-.85 0-.95.3-1.36 1-.7 1.24-5.17 7.91-6 7.91l-.36-.37c0-.65 2.6-6.2 2.6-7.41a1.17 1.17 0 0 0-1.32-1.22c-1.5 0-3 1.92-3.92 3l.53.43c.36-.28.94-1.21 1.48-1.21l.36.61c0 1-2.6 6.57-2.6 7.79 0 .89.95.92 1.41.92 2 0 6.31-6.53 7.18-7.79-.43 1.41-2.38 5.53-2.38 6.77 0 .72.71 1 1.34 1 1.72 0 3.42-2.14 4.37-3.3ZM329.61 137.52h.76l8.82-13.65h.06c-1 3.76-1.95 7.54-3 11.65-.24.94-.9 1-2.06 1l-.22.83.12.14c.34 0 2-.12 3.4-.12 1.16 0 3.2.12 3.54.12l.34-.75-.12-.22c-1.24 0-1.89-.27-1.89-.9a4.69 4.69 0 0 1 .21-1.33l2.67-11c.41-1.72.56-2 2.35-2l.39-.77-.14-.18c-.15 0-1.24.13-1.94.13H340l-8 12.35h-.05l-1.07-12.14c0-.16 0-.34-.53-.34-1.53 0-3 .13-4.56.13l-.32.8H326.88c.95 0 1.24 1 1.38 1.6-3.2 8.22-4.27 10.57-5.09 12.44a2 2 0 0 1-2.16 1.16l-.22.83.12.12c.61 0 1.53-.12 2.72-.12 1 0 1.94.12 2.5.12l.34-.9-.17-.07c-1.12 0-1.68-.17-1.68-.8a17.12 17.12 0 0 1 1.14-3.27l2.77-7.12ZM352.9 126.34c-3.67 0-6.38 3.49-6.38 7 0 2.47 1.52 4.48 4.14 4.48 3.67 0 6.39-3.49 6.39-7 0-2.48-1.53-4.49-4.15-4.49m.07 1c1.09 0 1.41 1 1.41 2.13 0 1.77-1.15 7.42-3.67 7.42-1.11 0-1.53-.77-1.53-2.13s1.14-7.42 3.79-7.42M381.15 122.65c.27-.94.85-1 2.65-1 .7 0 1.86 0 1.86.87 0 .51-.14 1.24-.14 1.41l.85.24.15-.14 1.06-4.1.07-.34-.21-.15-.63-.07c-.34 0-.2 1.07-1.92 1.07H375c-1.19 0-1.8 0-1.8-.44l.08-.56-.1-.07h-.8l-.15.13-1.13 3.39-.13.43.92.35c.39 0 .66-2 2.43-2h3.2c.71 0 .71.25.71.53l-3.38 11.74c-.75 2.67-1.35 2.67-2.79 2.67l-.31.85.12.12c.8 0 2.08-.12 3.66-.12s3 .12 3.81.12l.36-.82-.09-.15c-.54 0-2.11 0-2.11-.77l.17-.88ZM390.42 134.83a4 4 0 0 1-2.83 1.43c-1.46 0-2.12-1-2.12-2.4a5.72 5.72 0 0 1 .17-1.31c2.41-.07 7-1 7-4.07 0-1.48-1.57-2.14-2.86-2.14-4.22 0-6.93 4.42-6.93 7.84a3.38 3.38 0 0 0 3.7 3.65 5.19 5.19 0 0 0 4.44-2.56Zm-4.61-3.25c.37-1.29 2-4.27 3.47-4.27a.9.9 0 0 1 1 .95c0 2.33-2.52 3.27-4.44 3.32M415.84 122.65c.27-.94.85-1 2.65-1 .7 0 1.86 0 1.86.87 0 .51-.14 1.24-.14 1.41l.84.24.15-.14 1.07-4.1.07-.34-.22-.15-.63-.07c-.33 0-.19 1.07-1.91 1.07h-9.92c-1.19 0-1.8 0-1.8-.44l.08-.56-.1-.07H407l-.15.13-1.14 3.39-.12.43.92.35c.39 0 .66-2 2.43-2h3.2c.71 0 .71.25.71.53l-3.38 11.74c-.75 2.67-1.36 2.67-2.79 2.67l-.31.85.12.12c.8 0 2.08-.12 3.66-.12s3 .12 3.81.12l.36-.82-.1-.15c-.53 0-2.1 0-2.1-.77l.16-.88ZM425.39 128.52l.8.53c0 .75-3.32 6.6-4.83 6.6-.77 0-.94-.41-.94-1.23 0-2.14 2.52-5.9 5-5.9m3.4 5.29c-.37.39-1.22 1.7-1.78 1.7-.26 0-.43-.27-.43-.73 0-1.07 2.5-6.82 3.15-8.59l-.8-.19-.8.12-.75.95-1-.13c-3.47 0-8.44 5.17-8.44 8.74 0 1.28.39 2.15 1.67 2.15 2.14 0 4.71-3.61 5.63-5.26a19.58 19.58 0 0 0-1.14 4 1.15 1.15 0 0 0 1.29 1.26c1.47 0 3.17-2.46 3.92-3.53ZM439.14 134c-.48.54-1.5 1.82-2.28 1.82l-.46-.55c0-.78 2.54-5.9 2.54-7.5 0-.82-.38-1.38-1.26-1.38-1.81 0-3.17 1.82-4.36 3l.54.56c.48-.39 1.21-1.34 1.86-1.34l.49.37c0 .8-2.58 6.54-2.58 7.44 0 1.16.64 1.5 1.7 1.5 1.43 0 3.61-2.25 4.42-3.41Zm1.31-12.34a1.55 1.55 0 1 0-1.56 1.55 1.59 1.59 0 0 0 1.56-1.55M450.64 128.52l.8.53c0 .75-3.32 6.6-4.83 6.6-.77 0-.94-.41-.94-1.23 0-2.14 2.52-5.9 5-5.9m3.4 5.29c-.37.39-1.22 1.7-1.78 1.7-.26 0-.43-.27-.43-.73 0-1.07 2.49-6.82 3.15-8.59l-.8-.19-.8.12-.75.95-1-.13c-3.47 0-8.44 5.17-8.44 8.74 0 1.28.39 2.15 1.67 2.15 2.14 0 4.71-3.61 5.63-5.26a19.58 19.58 0 0 0-1.14 4 1.15 1.15 0 0 0 1.28 1.26c1.49 0 3.18-2.46 3.94-3.53ZM464.8 126.34c-3.66 0-6.38 3.49-6.38 7 0 2.47 1.53 4.48 4.15 4.48 3.66 0 6.38-3.49 6.38-7 0-2.48-1.53-4.49-4.15-4.49m.07 1c1.1 0 1.41 1 1.41 2.13 0 1.77-1.14 7.42-3.66 7.42-1.11 0-1.53-.77-1.53-2.13s1.14-7.42 3.78-7.42M350.1 123.17h5.88v1.39h-5.88zM302.6 123.17h5.88v1.39h-5.88zM224.47 44.88h.75l8.83-13.66v.05c-1 3.76-1.95 7.54-3 11.64-.24 1-.9 1.05-2.06 1.05l-.22.82.12.15c.34 0 2-.13 3.4-.13 1.16 0 3.2.13 3.54.13l.34-.75-.12-.22c-1.24 0-1.89-.27-1.89-.9a4.69 4.69 0 0 1 .21-1.33l2.67-11c.42-1.72.56-2 2.35-2l.39-.78-.14-.17c-.15 0-1.24.12-1.94.12h-2.94l-8 12.35-1.06-12.11c0-.17 0-.34-.53-.34-1.53 0-3 .12-4.56.12l-.31.8.52.05h.88c1 0 1.24 1 1.38 1.6-3.2 8.22-4.27 10.58-5.09 12.45a2 2 0 0 1-2.16 1.18l-.22.82.12.13c.61 0 1.53-.13 2.72-.13 1 0 1.94.13 2.5.13l.34-.9-.17-.07c-1.12 0-1.68-.17-1.68-.8a17.49 17.49 0 0 1 1.15-3.28l2.76-7.11h.05ZM247.34 41.31c-.49.54-1.5 1.82-2.28 1.82l-.46-.56c0-.77 2.54-5.89 2.54-7.49 0-.82-.38-1.38-1.26-1.38-1.82 0-3.18 1.82-4.37 3l.54.56c.48-.39 1.21-1.34 1.87-1.34l.48.36c0 .8-2.57 6.55-2.57 7.45 0 1.16.63 1.5 1.7 1.5 1.43 0 3.61-2.25 4.41-3.41ZM248.65 29a1.56 1.56 0 1 0-1.56 1.55 1.6 1.6 0 0 0 1.56-1.55M252.5 37.38c.22-.31.75-1.18 1.22-1.18s.67.41.67.84c0 1.38-2.66 7-2.66 7.47s1 .56 1.4.56l1-.26c.26-.93.73-1.85 1.07-2.75.58-1.48 2.42-6.64 4.7-6.64.48 0 .8.22.8.63 0 .8-2.47 6.35-2.47 7.69 0 .92.34 1.45 1.28 1.45 1.84 0 3.4-2.06 4.52-3.29l-.54-.51c-.46.41-1.29 1.62-2 1.62l-.49-.48c0-1.29 2.33-5.7 2.33-7.13a1.62 1.62 0 0 0-1.8-1.7c-2.32 0-4 1.94-5.26 3.68h-.05a10.44 10.44 0 0 0 .41-2.16c0-.79-.24-1.52-1.18-1.52-1.7 0-2.69 2-3.5 3.24ZM274 41.31c-.48.54-1.5 1.82-2.27 1.82l-.47-.56c0-.77 2.55-5.89 2.55-7.49 0-.82-.39-1.38-1.26-1.38-1.82 0-3.18 1.82-4.37 3l.54.56c.48-.39 1.21-1.34 1.86-1.34l.49.36c0 .8-2.58 6.55-2.58 7.45 0 1.16.64 1.5 1.71 1.5 1.43 0 3.61-2.25 4.41-3.41ZM275.26 29a1.55 1.55 0 1 0-1.55 1.55 1.6 1.6 0 0 0 1.55-1.55M285.57 35.1c0-.92-1.31-1.41-2.28-1.41a4.35 4.35 0 0 0-4.1 4.17c0 1.85 3.42 3.21 3.42 4.91a1.3 1.3 0 0 1-1.16 1.23c-1.45 0-1.45-1.6-2.65-1.6a1.05 1.05 0 0 0-1 1c0 1.24 1.19 1.82 2.3 1.82 2.16 0 4.61-2 4.61-4.24 0-1.56-3.76-3.62-3.76-4.78a1 1 0 0 1 1.09-1c1 0 1.43 1.07 2.6 1.07.65 0 1-.42 1-1.1M293.94 35.51h2.45l.29-.89-.22-.19h-2.21a17.45 17.45 0 0 0 .73-2.7c0-.55-.68-.63-1.09-.63-.92 0-1.12.18-1.38 1.1l-.66 2.23h-1.94l-.26 1 .21.11h1.72l-.39 1.29a62.54 62.54 0 0 0-1.83 6.72 1.62 1.62 0 0 0 1.74 1.68c2.08 0 3.37-1.61 4.49-3.09l-.58-.43c-.63.6-1.29 1.57-2.29 1.57-.48 0-.65-.29-.65-.7l.24-1.21ZM304.05 39.64c.29-.83 1.55-3.59 2.47-3.59.54 0 1 .51 1.7.51s1-1.12 1-1.72a1.06 1.06 0 0 0-1.16-1.14c-2.19 0-3.3 2.83-4.15 4.41h-.05a15.85 15.85 0 0 0 .41-2.62c0-1-.29-1.79-1.4-1.79-1.46 0-2.65 2.1-3.18 3.24l.55.35c.22-.3.76-1.09 1.2-1.09.6 0 .65.33.65.87 0 1.63-2.21 6.38-2.21 7.39 0 .52 1 .61 1.41.61.68 0 .87-.28 1.14-1ZM311.61 38.06c.26-.74.72-2.18 1.74-2.18 2 0 2 6.62 2 7.88a14.35 14.35 0 0 1-.22 2.82c-.24.82-1.58 2.81-2.72 2.81a4.22 4.22 0 0 0-1.33-.41 1.16 1.16 0 0 0-1.16 1.31 1.2 1.2 0 0 0 1.08 1.05c3.58 0 11.53-12.3 11.53-15.75 0-1.26-.28-1.89-1.37-1.89a1.23 1.23 0 0 0-1.16 1.22c0 .77.53 1.45.53 2.51 0 2.53-1.6 4.2-2.73 6.31h-.05c.07-2.11.24-10-3.28-10-1.94 0-3.08 2.6-3.56 4.12ZM340.33 34.43c.43-1.43 1.07-7.5 2.44-7.5.83 0 .63 1.41 1.73 1.41a1.2 1.2 0 0 0 1.14-1.12c0-1.06-1.14-1.38-2-1.38-4 0-5.26 5.65-5.82 8.59h-2l-.27 1 .22.12h1.87l-1.29 6.72a62.44 62.44 0 0 1-1.5 6.86c-.1.32-.2.65-.63.65s-.78-.48-1.38-.48a.86.86 0 0 0-.85 1 1.06 1.06 0 0 0 1.18 1.09c3.69 0 5.15-6.77 5.63-9.31l1.36-6.5h2.45l.29-.9-.22-.19ZM351.85 33.7c-3.67 0-6.38 3.49-6.38 7 0 2.47 1.52 4.48 4.14 4.48 3.67 0 6.38-3.49 6.38-7 0-2.48-1.52-4.49-4.14-4.49m.07 1c1.09 0 1.41 1 1.41 2.13 0 1.77-1.15 7.42-3.67 7.42-1.11 0-1.53-.77-1.53-2.13s1.15-7.42 3.79-7.42M364.48 39.64c.29-.83 1.56-3.59 2.48-3.59.53 0 .94.51 1.69.51s1-1.12 1-1.72a1.06 1.06 0 0 0-1.16-1.14c-2.18 0-3.3 2.83-4.15 4.41h-.05a15.87 15.87 0 0 0 .42-2.62c0-1-.3-1.79-1.41-1.79-1.46 0-2.64 2.1-3.18 3.24l.56.35c.22-.3.75-1.09 1.19-1.09.6 0 .65.33.65.87 0 1.63-2.21 6.38-2.21 7.39 0 .52 1 .61 1.41.61.68 0 .88-.28 1.14-1ZM385.45 35.51h2.45l.29-.89-.22-.19h-2.2a17.27 17.27 0 0 0 .72-2.7c0-.55-.67-.63-1.09-.63-.92 0-1.11.18-1.38 1.1l-.65 2.23h-1.95l-.26 1 .22.11h1.72l-.39 1.29a62.6 62.6 0 0 0-1.84 6.72 1.63 1.63 0 0 0 1.75 1.68c2.08 0 3.37-1.61 4.48-3.09l-.58-.43c-.63.6-1.29 1.57-2.28 1.57-.49 0-.66-.29-.66-.7l.25-1.21ZM396.73 45.19c3.16 0 6.48-5.79 6.48-8.65 0-1.65-.58-2.84-2.21-2.84-2.84 0-5.14 3.61-6.33 5.4h-.05c1.39-4.33 2.7-8.72 3.93-13.11l-.27-.15a29.57 29.57 0 0 1-4.68.92l-.19.8h.51c.66 0 1.38.15 1.38.82s-1.84 7-2.18 8.21c-.24 1-2.55 7.83-2.55 8.17s.54.32 1 .32l1.17-.13.36-.87c.61-1.6 4.08-8.66 6.38-8.66.8 0 1 .58 1 1.34 0 1.16-1.29 6.86-2.86 6.86-.32 0-.56-.7-1.31-.7a1.1 1.1 0 0 0-1 1.09c0 .82.48 1.18 1.4 1.18M415.1 42.19a4 4 0 0 1-2.84 1.43c-1.46 0-2.11-1-2.11-2.4a5.21 5.21 0 0 1 .17-1.31c2.4-.07 7-1 7-4.07 0-1.48-1.58-2.14-2.86-2.14-4.22 0-6.94 4.42-6.94 7.83a3.39 3.39 0 0 0 3.71 3.66 5.2 5.2 0 0 0 4.44-2.56Zm-4.61-3.25c.36-1.29 2-4.27 3.47-4.27a.9.9 0 0 1 1 .94c0 2.34-2.52 3.28-4.44 3.33M216.07 58.24h22.77V65h-14.43v10.47h14.14v6.76h-14.14v12.68h16.94v6.77h-25.28V58.24zM250.5 69.88h7.87v2.06a16.06 16.06 0 0 1 8.63-2.76c7.51 0 11.65 4.41 11.65 12.41v20.09h-7.95v-19c0-5-1.94-7-5.7-7-3.44 0-6.57 2.3-6.57 7.1v18.87h-7.93ZM301.84 91.29c2.66-7.51 5.65-14.86 8.72-22.21l7.29 1.66-13.65 30.94h-5l-13-30.54 7.9-2.11c2.93 7.31 5.89 14.6 7.77 22.26M333.24 101.68h-7.93v-31.8h7.93Zm.7-40.06c0 1.9-1 4.89-4.66 4.89s-4.67-3-4.67-4.89a4.67 4.67 0 0 1 9.33 0M352.93 71.48a8.55 8.55 0 0 1 5.12-2.3c2.71 0 4.93 2.24 6.53 4.12l-3.66 5.18c-1.27-.65-2.87-1.6-4.33-1.6s-3.54 1.38-3.54 7.79v17h-7.93V69.88h7.81ZM400.8 85.43c0 9.65-6.25 16.95-15.72 16.95s-15.67-7.31-15.67-16.95c0-10.23 7.65-16.25 15.67-16.25s15.72 6 15.72 16.25m-8.33 0c0-5.11-2.05-9.83-7.39-9.83s-7.33 4.72-7.33 9.83c0 5.48 1.83 10.53 7.33 10.53s7.39-5.06 7.39-10.53M410.87 69.88h7.87v2.06a16.08 16.08 0 0 1 8.61-2.76c7.51 0 11.65 4.41 11.65 12.41v20.09h-7.93v-19c0-5-1.94-7-5.7-7-3.44 0-6.57 2.3-6.57 7.1v18.87h-7.93ZM451.06 69.88h7.87v1.89a13.39 13.39 0 0 1 7.74-2.59 12.36 12.36 0 0 1 9.41 3.76 17 17 0 0 1 9.86-3.76c7.34 0 11 4.95 11.23 11.69v20.81h-7.92V83c0-4.16-1-7-5.06-7-3.68 0-6.11 1.71-6.11 6.86v18.87h-7.92V83c0-5-2-7-5.24-7-3.55 0-5.92 2.05-5.92 7v18.64h-7.93ZM522.55 69.18c11 0 13.1 10.18 12.48 18.29h-19.45c.52 4.69 4 8.49 8.43 8.49a13.57 13.57 0 0 0 8.42-3.18l2.8 5.29c-3.38 2.4-7.12 4.3-11.4 4.3-9.85 0-16.42-6.21-16.42-17.17s7.93-16 15.14-16m-.06 6.42c-3.91 0-5.89 2.76-6.46 5.69h11.58c-.34-3.52-2.05-5.69-5.12-5.69M545 69.88h7.87v2.06a16.08 16.08 0 0 1 8.61-2.76c7.51 0 11.65 4.41 11.65 12.41v20.09h-7.93v-19c0-5-1.94-7-5.7-7-3.44 0-6.57 2.3-6.57 7.1v18.87H545ZM586.41 63.27l7.93-2.64v9.25H602v5.72h-7.63v15.13c0 4.17.83 5.17 2.67 5.17 2 0 3-.6 4.67-1.51l2.29 5.29c-2.39 1.54-4.7 2.69-7.63 2.69-6.7 0-10-4.11-10-10.65V75.6h-4.07v-5.72h4.07ZM190.56 12.65h1.63v143.67h-1.63z"></path></svg>