<?xml version="1.0" encoding="UTF-8"?>
<svg width="214px" height="50px" viewBox="0 0 214 50" version="1.1" xmlns="http://www.w3.org/2000/svg" xmlns:xlink="http://www.w3.org/1999/xlink">
    <g id="Logos-/-KO-logo" stroke="none" stroke-width="1" fill="none" fill-rule="evenodd">
        <g id="Group" transform="translate(0.000000, 0.000000)">
            <path d="M15.1364107,0.0199771096 L0.0157813054,0.0156992478 L0.00424284391,15.1294177 C-0.0688340792,16.466131 0.826270816,17.386061 0.826270816,17.386061 L8.43466242,24.9948023 L14.2864107,19.143054 C14.4332638,18.9643827 14.6245226,18.5857114 14.1762708,18.1056414 C14.1745226,18.1038932 14.1738233,18.1024946 14.172075,18.1003967 L7.97382326,11.9021449 L11.9021449,7.97382326 L18.0608862,14.1322149 C18.0769701,14.1458512 18.0920051,14.1563407 18.1091379,14.1724247 C18.5895575,14.6206764 18.9682289,14.4294177 19.1469002,14.2822149 L24.9948023,8.43431277 L17.6056414,1.04550159 L17.3864107,0.825921166 C17.3864107,0.825921166 16.473124,-0.0527501631 15.1364107,0.0199771096" id="Fill-1" fill="#44B038"></path>
            <path d="M49.9682289,15.136061 L49.9727743,0.0157813054 L34.8591379,0.00424284391 C33.5224247,-0.0688340792 32.6024946,0.826270816 32.6024946,0.826270816 L32.3829142,1.04550159 L24.9937533,8.43431277 L30.8455016,14.2864107 C31.0241729,14.4332638 31.4028442,14.6245226 31.8829142,14.1762708 C31.8846624,14.1741729 31.886061,14.1734736 31.8878093,14.172075 L38.0864107,7.97382326 L42.0147324,11.9017953 L35.8563407,18.0608862 C35.8427044,18.0769701 35.8322149,18.0916554 35.8157813,18.1087883 C35.3678792,18.5892079 35.5587883,18.9678792 35.7059911,19.1469002 L41.5538932,24.9948023 L49.1622848,17.386061 C49.1622848,17.386061 50.0413058,16.473124 49.9682289,15.136061" id="Fill-2" fill="#AABD00"></path>
            <path d="M34.8535435,49.9699771 L49.9741729,49.9745226 L49.9857114,34.8608862 C50.0587883,33.5241729 49.1640331,32.6038932 49.1640331,32.6038932 L48.9444526,32.3846624 L41.5552918,24.9955016 L35.7035435,30.8469002 C35.5566904,31.0259212 35.3654317,31.4045925 35.8136834,31.8846624 C35.8154317,31.8864107 35.816131,31.8878093 35.8178792,31.8895575 L42.016131,38.0878093 L38.0878093,42.0164806 L31.9294177,35.858089 C31.9129841,35.844103 31.8982988,35.8339631 31.8808163,35.8171799 C31.4003967,35.3696275 31.0217254,35.5605366 30.843054,35.7077393 L24.9951519,41.5552918 L32.6035435,49.1640331 C32.6035435,49.1640331 33.5168303,50.043054 34.8535435,49.9699771" id="Fill-3" fill="#44B038"></path>
            <path d="M0.0217253614,34.8538932 L0.0171799068,49.9745226 L15.1308163,49.986061 C16.4675296,50.0591379 17.3878093,49.1640331 17.3878093,49.1640331 L24.9962009,41.5556414 L19.1444526,35.7038932 C18.9657813,35.55704 18.58711,35.3657813 18.1066904,35.8140331 C18.1052918,35.8157813 18.1038932,35.8164806 18.1021449,35.8182289 L11.9035435,42.0164806 L7.97487221,38.0881589 L14.1336135,31.9294177 C14.1472498,31.9133338 14.1577393,31.8982988 14.1738233,31.8811659 C14.622075,31.4007463 14.4311659,31.022075 14.2836135,30.8434037 L8.43606103,24.9955016 L0.827319767,32.6038932 C0.827319767,32.6038932 -0.051701212,33.5171799 0.0217253614,34.8538932" id="Fill-4" fill="#007749"></path>
            <polyline id="Fill-5" fill="#2D302F" points="67.9668303 15.7185785 76.3636834 27.0133338 70.4713757 27.0133338 63.4486484 17.1269701 63.4486484 27.0133338 58.5024946 27.0133338 58.5024946 4.61648061 63.4486484 4.61648061 63.4486484 14.5671799 70.501096 4.61648061 76.3636834 4.61648061 67.9668303 15.7185785"></polyline>
            <polygon id="Fill-6" fill="#2D302F" points="94.7297673 27.0129841 99.3706764 27.0129841 99.3706764 11.5920051 94.7297673 11.5920051"></polygon>
            <path d="M99.8878093,7.13955753 C99.8878093,8.72172536 98.6182289,10.0042428 97.0521449,10.0042428 C95.4857114,10.0042428 94.2157813,8.72172536 94.2157813,7.13955753 C94.2157813,5.5573897 95.4857114,4.27487221 97.0517953,4.27487221 C98.6182289,4.27487221 99.8878093,5.5573897 99.8878093,7.13955753" id="Fill-7" fill="#2D302F"></path>
            <path d="M102.239558,11.5920051 L106.911236,11.5920051 L106.911236,13.8308163 C107.766131,12.1042428 109.445851,11.1762708 111.674173,11.1762708 C115.246201,11.1762708 117.047949,13.2878093 117.047949,17.479068 L117.047949,27.0129841 L112.345851,27.0129841 L112.345851,19.0783687 C112.345851,16.4867603 111.644453,15.3028442 109.751096,15.3028442 C107.888159,15.3028442 106.911236,16.5825645 106.911236,18.9496974 L106.911236,27.0129841 L102.239558,27.0129841 L102.239558,11.5920051" id="Fill-8" fill="#2D302F"></path>
            <path d="M135.184313,11.5920051 L135.184313,26.0217254 C135.154592,28.9969002 134.146551,31.0444526 132.344802,32.3563407 C131.002145,33.3479491 129.200746,33.7311659 127.093753,33.7311659 C124.98711,33.7311659 123.215432,33.3804666 121.780816,32.4836135 C120.284662,31.5238233 119.215432,29.8605366 119.154592,28.1965505 L123.918229,28.1965505 C124.131516,29.4122848 125.139558,30.1475995 127.031865,30.1475995 C129.200746,30.1475995 130.513334,29.3164806 130.513334,26.565082 L130.513334,24.5171799 C129.780816,26.0531939 127.82662,27.0129841 125.902145,27.0129841 C121.536411,27.0129841 118.910187,23.6857114 118.910187,19.1423547 C118.910187,14.600047 121.719977,11.1762708 125.964383,11.1762708 C127.979068,11.1762708 129.780816,12.2003967 130.513334,13.7996974 L130.513334,11.5920051 L135.184313,11.5920051 Z M130.72662,19.20704 C130.72662,16.9671799 129.413683,15.1755715 127.185711,15.1755715 C125.077669,15.1755715 123.703893,16.8710261 123.703893,19.20704 C123.703893,21.5420051 125.077669,23.2374596 127.185711,23.2374596 C129.413683,23.2374596 130.72662,21.4458512 130.72662,19.20704 L130.72662,19.20704 Z" id="Fill-9" fill="#2D302F"></path>
            <path d="M137.0469,19.3021449 C137.0469,14.6948023 139.762984,11.1762708 144.038858,11.1762708 C146.174872,11.1762708 147.855292,12.2315156 148.648648,13.7996974 L148.648648,11.5920051 L153.289907,11.5920051 L153.289907,27.0133338 L148.648648,27.0133338 L148.648648,24.8381589 C147.855292,26.3738233 146.022774,27.429068 143.97662,27.429068 C139.580117,27.429068 137.0469,23.9413058 137.0469,19.3021449 M148.832215,19.3021449 C148.832215,17.0948023 147.640606,15.2717254 145.321026,15.2717254 C143.152145,15.2717254 141.809488,16.9671799 141.809488,19.3021449 C141.809488,21.6381589 143.152145,23.3657813 145.321026,23.3657813 C147.640606,23.3657813 148.832215,21.5420051 148.832215,19.3021449" id="Fill-10" fill="#2D302F"></path>
            <path d="M161.295152,15.8147324 C161.295152,9.44829879 165.539208,3.97697012 172.714383,3.97697012 C179.888858,3.97697012 184.132914,9.44829879 184.132914,15.8147324 C184.132914,22.1822149 179.888858,27.6524946 172.714383,27.6524946 C165.539208,27.6524946 161.295152,22.1822149 161.295152,15.8147324 M178.973474,15.8147324 C178.973474,11.9115855 176.775222,8.61683026 172.714383,8.61683026 C168.623124,8.61683026 166.424523,11.9115855 166.455292,15.8147324 C166.424523,19.7189282 168.623124,23.0140331 172.714383,23.0140331 C176.775222,23.0140331 178.973474,19.7189282 178.973474,15.8147324" id="Fill-11" fill="#2D302F"></path>
            <path d="M186.108089,11.5920051 L190.780117,11.5920051 L190.780117,14.8234736 C191.299697,12.5196275 193.039208,11.336061 194.840606,11.336061 C195.390257,11.336061 195.696201,11.3675296 196.062285,11.4633338 L196.062285,16.00704 C195.512984,15.9434037 195.23746,15.9108862 194.65739,15.9108862 C192.368229,15.9108862 190.780117,17.3503967 190.780117,21.0622848 L190.780117,27.0129841 L186.108089,27.0129841 L186.108089,11.5920051" id="Fill-12" fill="#2D302F"></path>
            <path d="M197.246201,19.3021449 C197.246201,14.6948023 199.962634,11.1762708 204.238159,11.1762708 C206.374173,11.1762708 208.054592,12.2315156 208.847949,13.7996974 L208.847949,11.5920051 L213.489208,11.5920051 L213.489208,27.0133338 L208.847949,27.0133338 L208.847949,24.8381589 C208.054592,26.3738233 206.222075,27.429068 204.175921,27.429068 C199.779418,27.429068 197.246201,23.9413058 197.246201,19.3021449 M209.031516,19.3021449 C209.031516,17.0948023 207.840257,15.2717254 205.520327,15.2717254 C203.351795,15.2717254 202.008788,16.9671799 202.008788,19.3021449 C202.008788,21.6381589 203.351795,23.3657813 205.520327,23.3657813 C207.840257,23.3657813 209.031516,21.5420051 209.031516,19.3021449" id="Fill-13" fill="#2D302F"></path>
            <path d="M75.5381589,19.286061 C75.5381589,14.6783687 78.2549421,11.1587883 82.530117,11.1587883 C84.6664806,11.1587883 86.3465505,12.2143827 87.1402568,13.7825645 L87.1402568,11.5752219 L91.7811659,11.5752219 L91.7811659,26.9965505 L87.1402568,26.9965505 L87.1402568,24.8203268 C86.3465505,26.3566904 84.5140331,27.4119352 82.4682289,27.4119352 C78.0713757,27.4119352 75.5381589,23.9245226 75.5381589,19.286061 M87.3234736,19.286061 C87.3234736,17.0776694 86.1322149,15.2538932 83.8122848,15.2538932 C81.6437533,15.2538932 80.3007463,16.950047 80.3007463,19.286061 C80.3007463,21.6210261 81.6437533,23.3489981 83.8122848,23.3489981 C86.1322149,23.3489981 87.3234736,21.5248722 87.3234736,19.286061" id="Fill-14" fill="#2D302F"></path>
            <polygon id="Fill-15" fill="#2D302F" points="79.1007463 8.98326382 89.5434037 8.98326382 89.5434037 5.79969739 79.1007463 5.79969739"></polygon>
            <path d="M110.089907,38.4647324 L110.089907,39.6185785 C109.660886,38.8049421 108.714033,38.28711 107.73746,38.28711 C105.680816,38.28711 104.289907,39.9147324 104.289907,41.8234736 C104.289907,43.7171799 105.680816,45.3444526 107.73746,45.3444526 C108.714033,45.3444526 109.660886,44.8269701 110.089907,44.0133338 L110.089907,45.1822149 L111.362285,45.1822149 L111.362285,38.4647324 L110.089907,38.4647324 Z M107.811236,44.1906065 C106.450047,44.1906065 105.562285,43.1105366 105.562285,41.8234736 C105.562285,40.5357114 106.450047,39.4413058 107.811236,39.4413058 C109.202145,39.4413058 110.089907,40.5357114 110.089907,41.8234736 C110.089907,43.1105366 109.202145,44.1906065 107.811236,44.1906065 L107.811236,44.1906065 Z" id="Fill-16" fill="#2D302F"></path>
            <path d="M113.092005,45.1822149 L114.379418,45.1822149 L114.379418,41.7196275 C114.379418,40.5210261 115.000746,39.4266205 116.287809,39.4266205 C117.545502,39.4266205 117.989558,40.3734736 117.989558,41.616131 L117.989558,45.1822149 L119.27662,45.1822149 L119.27662,41.2168303 C119.27662,40.2699771 119.128718,39.6776694 118.758788,39.1752219 C118.359837,38.6122848 117.678718,38.2874596 116.746551,38.2874596 C115.607739,38.2874596 114.778718,38.8343128 114.379418,39.6482988 L114.379418,38.4647324 L113.092005,38.4647324 L113.092005,45.1822149" id="Fill-17" fill="#2D302F"></path>
            <path d="M126.264033,45.1822149 L127.536411,45.1822149 L127.536411,35.2965505 L126.264033,35.2965505 L126.264033,39.6185785 C125.835012,38.8049421 124.888159,38.2874596 123.911586,38.2874596 C121.854942,38.2874596 120.464033,39.9143827 120.464033,41.823124 C120.464033,43.7171799 121.854942,45.3444526 123.911586,45.3444526 C124.888159,45.3444526 125.835012,44.8269701 126.264033,44.0133338 L126.264033,45.1822149 Z M123.985012,44.1909561 C122.624173,44.1909561 121.736411,43.1108862 121.736411,41.823124 C121.736411,40.536061 122.624173,39.4413058 123.985012,39.4413058 C125.376271,39.4413058 126.264033,40.536061 126.264033,41.823124 C126.264033,43.1108862 125.376271,44.1909561 123.985012,44.1909561 L123.985012,44.1909561 Z" id="Fill-18" fill="#2D302F"></path>
            <path d="M70.8252219,45.3448023 C72.9857114,45.3448023 74.3766205,43.7171799 74.3766205,41.8234736 C74.3766205,39.9147324 72.9857114,38.28711 70.8252219,38.28711 C68.6948023,38.28711 67.3042428,39.9147324 67.3042428,41.8234736 C67.3042428,43.7171799 68.6948023,45.3448023 70.8252219,45.3448023 M70.8252219,44.1906065 C69.4643827,44.1906065 68.5766205,43.1105366 68.5766205,41.8234736 C68.5766205,40.536061 69.4643827,39.4413058 70.8252219,39.4413058 C72.216131,39.4413058 73.1038932,40.536061 73.1038932,41.8234736 C73.1038932,43.1105366 72.216131,44.1906065 70.8252219,44.1906065" id="Fill-19" fill="#2D302F"></path>
            <path d="M85.5514456,45.1822149 L85.5514456,40.9357114 C85.5514456,39.4563407 84.9448023,38.2874596 83.1545925,38.2874596 C82.1038932,38.2874596 81.2755715,38.9528442 80.994103,39.722075 C80.7427044,38.8640331 80.0769701,38.2874596 78.8339631,38.2874596 C77.8427044,38.2874596 77.1028442,38.923124 76.8514456,39.6629841 L76.8514456,38.4647324 L75.5640331,38.4647324 L75.5640331,45.1822149 L76.8514456,45.1822149 L76.8514456,41.7640331 C76.8514456,40.1958512 77.5318652,39.4266205 78.5084386,39.4266205 C79.4112359,39.4266205 79.9140331,40.0332638 79.9140331,41.3944526 L79.9140331,45.1822149 L81.2014456,45.1822149 L81.2014456,41.7640331 C81.2014456,40.1958512 81.8521449,39.4266205 82.8434037,39.4266205 C83.7608862,39.4266205 84.2640331,40.0776694 84.2640331,41.3203268 L84.2640331,45.1822149 L85.5514456,45.1822149" id="Fill-20" fill="#2D302F"></path>
            <path d="M90.1119352,39.2783687 C91.1916554,39.2783687 92.0059911,40.0182289 92.0059911,41.18711 L88.1140331,41.18711 C88.144103,39.9738233 88.9573897,39.2783687 90.1119352,39.2783687 M93.1892079,42.1640331 C93.2482988,41.7937533 93.2482988,41.5126345 93.2482988,41.3206764 C93.2482988,39.6038932 91.88711,38.28711 90.1416554,38.28711 C88.0252219,38.28711 86.8273198,39.7962009 86.8273198,41.823124 C86.8273198,43.7615855 87.9217254,45.3448023 90.1857114,45.3448023 C91.8724247,45.3448023 92.9675296,44.3385086 93.1892079,43.1996974 L91.88711,43.1996974 C91.680117,43.7762708 91.1916554,44.2647324 90.1857114,44.2647324 C88.7063407,44.2647324 88.1587883,43.3028442 88.0993477,42.1640331 L93.1892079,42.1640331" id="Fill-21" fill="#2D302F"></path>
            <path d="M97.7297673,41.4385086 C96.4864107,41.0392079 95.7916554,40.9353617 95.7916554,40.2552918 C95.7916554,39.6482988 96.3241729,39.323124 97.0339631,39.323124 C97.9217254,39.323124 98.3951519,39.7664806 98.3951519,40.5507463 L99.6385086,40.5507463 C99.6385086,39.2045925 98.5140331,38.2874596 97.0486484,38.2874596 C95.6584386,38.2874596 94.5486484,38.9675296 94.5486484,40.2255715 C94.5486484,41.4385086 95.3475995,41.7493477 96.3685785,42.0752219 C97.715082,42.5332638 98.5140331,42.6073897 98.5140331,43.3619352 C98.5140331,44.0280191 97.9808163,44.3238233 97.1675296,44.3238233 C96.265082,44.3238233 95.5839631,43.9392079 95.5839631,42.9185785 L94.3266205,42.9185785 C94.3266205,44.5455016 95.6283687,45.3448023 97.1084386,45.3448023 C98.6175296,45.3448023 99.7420051,44.6787184 99.7420051,43.3325645 C99.7420051,42.0601869 98.7507463,41.7640331 97.7297673,41.4385086" id="Fill-22" fill="#2D302F"></path>
            <polyline id="Fill-23" fill="#2D302F" points="64.6734736 45.1822149 66.0199771 45.1822149 66.0199771 34.9780191 64.6734736 34.9780191 64.6734736 39.3713757 59.8493477 39.3713757 59.8493477 34.9780191 58.5028442 34.9780191 58.5028442 45.1822149 59.8493477 45.1822149 59.8493477 40.5846624 64.6734736 40.5846624 64.6734736 45.1822149"></polyline>
            <path d="M145.933264,45.3448023 C148.093404,45.3448023 149.484313,43.7171799 149.484313,41.8234736 C149.484313,39.9147324 148.093404,38.28711 145.933264,38.28711 C143.802495,38.28711 142.411935,39.9147324 142.411935,41.8234736 C142.411935,43.7171799 143.802495,45.3448023 145.933264,45.3448023 M145.933264,44.1906065 C144.571725,44.1906065 143.683963,43.1105366 143.683963,41.8234736 C143.683963,40.536061 144.571725,39.4413058 145.933264,39.4413058 C147.324173,39.4413058 148.211935,40.536061 148.211935,41.8234736 C148.211935,43.1105366 147.324173,44.1906065 145.933264,44.1906065" id="Fill-24" fill="#2D302F"></path>
            <path d="M160.582914,45.1822149 L160.582914,40.9357114 C160.582914,39.4563407 159.976271,38.2874596 158.186411,38.2874596 C157.135362,38.2874596 156.30739,38.9528442 156.025921,39.722075 C155.774173,38.8640331 155.108439,38.2874596 153.865432,38.2874596 C152.874523,38.2874596 152.134313,38.923124 151.883264,39.6629841 L151.883264,38.4647324 L150.595851,38.4647324 L150.595851,45.1822149 L151.883264,45.1822149 L151.883264,41.7640331 C151.883264,40.1958512 152.563683,39.4266205 153.540257,39.4266205 C154.443054,39.4266205 154.945502,40.0332638 154.945502,41.3944526 L154.945502,45.1822149 L156.232914,45.1822149 L156.232914,41.7640331 C156.232914,40.1958512 156.883963,39.4266205 157.875222,39.4266205 C158.792704,39.4266205 159.295851,40.0776694 159.295851,41.3203268 L159.295851,45.1822149 L160.582914,45.1822149" id="Fill-25" fill="#2D302F"></path>
            <path d="M172.131516,45.1822149 L172.131516,40.9357114 C172.131516,39.4563407 171.524523,38.2874596 169.734313,38.2874596 C168.683613,38.2874596 167.855292,38.9528442 167.574523,39.722075 C167.322425,38.8640331 166.65704,38.2874596 165.413683,38.2874596 C164.422425,38.2874596 163.682914,38.923124 163.431166,39.6629841 L163.431166,38.4647324 L162.143753,38.4647324 L162.143753,45.1822149 L163.431166,45.1822149 L163.431166,41.7640331 C163.431166,40.1958512 164.111586,39.4266205 165.088159,39.4266205 C165.990956,39.4266205 166.494103,40.0332638 166.494103,41.3944526 L166.494103,45.1822149 L167.781166,45.1822149 L167.781166,41.7640331 C167.781166,40.1958512 168.432565,39.4266205 169.423823,39.4266205 C170.341306,39.4266205 170.843753,40.0776694 170.843753,41.3203268 L170.843753,45.1822149 L172.131516,45.1822149" id="Fill-26" fill="#2D302F"></path>
            <path d="M178.559488,38.4647324 L178.559488,41.9122848 C178.559488,43.1255715 177.938159,44.2056414 176.636411,44.2056414 C175.393404,44.2056414 174.949348,43.2587883 174.949348,42.0157813 L174.949348,38.4647324 L173.662285,38.4647324 L173.662285,42.4297673 C173.662285,43.3619352 173.795502,43.9689282 174.165082,44.4717254 C174.565082,45.0192778 175.259837,45.3444526 176.192005,45.3444526 C177.316481,45.3444526 178.159837,44.7972498 178.559488,43.9836135 L178.559488,45.1822149 L179.8469,45.1822149 L179.8469,38.4647324 L178.559488,38.4647324" id="Fill-27" fill="#2D302F"></path>
            <path d="M181.420676,45.1822149 L182.708089,45.1822149 L182.708089,41.7196275 C182.708089,40.5210261 183.329418,39.4266205 184.616481,39.4266205 C185.874173,39.4266205 186.318229,40.3734736 186.318229,41.616131 L186.318229,45.1822149 L187.605292,45.1822149 L187.605292,41.2168303 C187.605292,40.2699771 187.45739,39.6776694 187.08746,39.1752219 C186.688159,38.6122848 186.00739,38.2874596 185.075222,38.2874596 C183.935711,38.2874596 183.10739,38.8343128 182.708089,39.6482988 L182.708089,38.4647324 L181.420676,38.4647324 L181.420676,45.1822149" id="Fill-28" fill="#2D302F"></path>
            <path d="M188.995851,36.5839631 C188.995851,37.0448023 189.354243,37.4210261 189.792704,37.4210261 C190.243753,37.4210261 190.613683,37.0448023 190.613683,36.5839631 C190.613683,36.1108862 190.243753,35.7227743 189.792704,35.7227743 C189.354243,35.7227743 188.995851,36.1108862 188.995851,36.5839631" id="Fill-29" fill="#2D302F"></path>
            <path d="M197.614732,36.5839631 C197.614732,37.0448023 197.972774,37.4210261 198.411586,37.4210261 C198.862285,37.4210261 199.232565,37.0448023 199.232565,36.5839631 C199.232565,36.1108862 198.862285,35.7227743 198.411586,35.7227743 C197.972774,35.7227743 197.614732,36.1108862 197.614732,36.5839631" id="Fill-30" fill="#2D302F"></path>
            <path d="M196.295851,44.0427044 C196.103544,44.0724247 195.689208,44.1017953 195.422774,44.1017953 C194.771725,44.1017953 194.313334,43.9392079 194.313334,42.63711 L194.313334,39.5448023 L196.059138,39.5448023 L196.059138,38.465082 L194.313334,38.465082 L194.313334,36.2007463 L193.026271,36.2007463 L193.026271,38.465082 L191.783264,38.465082 L191.783264,39.5448023 L193.026271,39.5448023 L193.026271,42.9182289 C193.026271,45.123124 194.313334,45.2706764 195.141655,45.2706764 C195.571026,45.2706764 196.044453,45.2262708 196.295851,45.1822149 L196.295851,44.0427044" id="Fill-31" fill="#2D302F"></path>
            <path d="M203.766131,39.2783687 C204.846201,39.2783687 205.660187,40.0182289 205.660187,41.18711 L201.768579,41.18711 C201.798299,39.9738233 202.612285,39.2783687 203.766131,39.2783687 M206.843753,42.1640331 C206.902844,41.7937533 206.902844,41.5126345 206.902844,41.3206764 C206.902844,39.6038932 205.541655,38.28711 203.795851,38.28711 C201.680117,38.28711 200.481516,39.7962009 200.481516,41.823124 C200.481516,43.7615855 201.57662,45.3448023 203.840257,45.3448023 C205.52697,45.3448023 206.621725,44.3385086 206.843753,43.1996974 L205.541655,43.1996974 C205.335012,43.7762708 204.846201,44.2647324 203.840257,44.2647324 C202.360886,44.2647324 201.812984,43.3028442 201.753893,42.1640331 L206.843753,42.1640331" id="Fill-32" fill="#2D302F"></path>
            <path d="M211.410187,41.4385086 C210.16718,41.0392079 209.472075,40.9353617 209.472075,40.2552918 C209.472075,39.6482988 210.004592,39.323124 210.714732,39.323124 C211.602145,39.323124 212.075921,39.7664806 212.075921,40.5507463 L213.318928,40.5507463 C213.318928,39.2045925 212.194453,38.2874596 210.729068,38.2874596 C209.338858,38.2874596 208.229068,38.9675296 208.229068,40.2255715 C208.229068,41.4385086 209.028019,41.7493477 210.048998,42.0752219 C211.395502,42.5332638 212.194453,42.6073897 212.194453,43.3619352 C212.194453,44.0280191 211.661236,44.3238233 210.847949,44.3238233 C209.945502,44.3238233 209.264732,43.9392079 209.264732,42.9185785 L208.00704,42.9185785 C208.00704,44.5455016 209.309138,45.3448023 210.788858,45.3448023 C212.297949,45.3448023 213.422425,44.6787184 213.422425,43.3325645 C213.422425,42.0601869 212.431166,41.7640331 211.410187,41.4385086" id="Fill-33" fill="#2D302F"></path>
            <polygon id="Fill-34" fill="#2D302F" points="189.160886 45.1822149 190.448299 45.1822149 190.448299 38.4647324 189.160886 38.4647324"></polygon>
            <polygon id="Fill-35" fill="#2D302F" points="197.779767 45.1822149 199.06718 45.1822149 199.06718 38.4647324 197.779767 38.4647324"></polygon>
            <path d="M139.953544,42.6255715 C139.522425,43.5734736 138.410537,44.1881589 137.260187,44.1881589 C135.033963,44.1881589 133.483963,42.5455016 133.483963,40.1934037 C133.483963,37.5892079 135.262984,36.2266205 137.072075,36.2266205 C138.616131,36.2266205 139.658788,36.9892079 140.134662,38.2668303 L140.140956,38.2836135 L141.598998,38.2836135 L141.589558,38.2503967 C140.99725,36.1969002 139.560537,35.0185785 137.076271,35.0185785 C135.56718,35.0185785 134.426271,35.5640331 133.46683,36.5962009 C132.575222,37.5538932 132.084662,38.8315156 132.084662,40.1934037 C132.084662,41.5920051 132.589558,42.886061 133.505991,43.83711 C134.489907,44.8573897 135.682914,45.3969002 137.264732,45.3969002 C139.345851,45.3969002 140.770676,44.344103 141.511236,42.6496974 L141.52662,42.6133338 L139.953544,42.6255715" id="Fill-36" fill="#2D302F"></path>
        </g>
    </g>
</svg>
